<svg width="31" height="30" fill="none" xmlns="http://www.w3.org/2000/svg"><path d="M13.598 1.854c.599-1.843 3.205-1.843 3.804 0l2.252 6.93a2 2 0 001.902 1.381h7.285c1.938 0 2.743 2.48 1.176 3.618l-5.894 4.283a2 2 0 00-.727 2.236l2.252 6.929c.598 1.842-1.51 3.375-3.078 2.236l-5.894-4.283a2 2 0 00-2.352 0L8.43 29.467c-1.567 1.139-3.676-.394-3.077-2.236l2.25-6.93a2 2 0 00-.726-2.235L.983 13.783c-1.567-1.139-.762-3.618 1.176-3.618h7.285a2 2 0 001.902-1.382l2.252-6.929z" fill="url(#paint0_linear_8_4014)"/><defs><linearGradient id="paint0_linear_8_4014" x1="-5" y1="16.5" x2="36" y2="16.5" gradientUnits="userSpaceOnUse"><stop stop-color="#5433FF"/><stop offset=".5" stop-color="#20BDFF"/><stop offset="1" stop-color="#259EA6"/></linearGradient></defs></svg>